<svg xmlns="http://www.w3.org/2000/svg" width="29.561" height="30.728" viewBox="0 0 29.561 30.728">
  <g id="Group_278" data-name="Group 278" transform="translate(-322.315 -710.777)">
    <g id="Group_25" data-name="Group 25" transform="translate(-6017.332 -1)">
      <g id="Group_22" data-name="Group 22">
        <g id="Group_21" data-name="Group 21">
          <g id="Group_20" data-name="Group 20">
            <path id="Path_3" data-name="Path 3" d="M6364.825,716.16l-10.4-4.307-10.4,4.307-4.307,10.4,4.307,10.4,10.4,5.471,10.4-5.471,4.307-10.4Z" fill="none" stroke="#978f72" stroke-miterlimit="10" stroke-width="0.14"/>
          </g>
        </g>
      </g>
      <g id="Group_24" data-name="Group 24">
        <g id="Group_23" data-name="Group 23">
          <path id="Path_4" data-name="Path 4" d="M6352.147,736.053l2.28,1.307,2.281-1.307-2.28-1.3Z" fill="none" stroke="#978f72" stroke-miterlimit="10" stroke-width="0.14"/>
          <path id="Path_5" data-name="Path 5" d="M6363.994,726.593l-2.781-6.713-2.8-1.948-3.984,2.084-3.794-2.084-2.992,1.948-2.781,6.713h0l3.982,4.223v2.942l2.624,1.5,2.623-1.5V733.2l-3.579-1.931.752-2.316h0l.751-2.311-1.253-1.312.186.924-3.116-1.13-.284-1.243-.957-.691h3.543l2.9,2.164-1.5,4.964,2.9.989,2.961-1.027-1.587-4.926,2.9-2.164h3.543l-.957.691-.284,1.243-3.116,1.13.186-.924-1.2,1.254.791,2.412.332.973.443,1.3-3.676,1.932v.559l2.623,1.5,2.623-1.5V732.54l0,0v-1.7l3.756-3.984-.042.015Z" fill="none" stroke="#978f72" stroke-miterlimit="10" stroke-width="0.14"/>
        </g>
      </g>
    </g>
  </g>
</svg>
