<svg xmlns="http://www.w3.org/2000/svg" width="12.02" height="12.02" viewBox="0 0 12.02 12.02">
  <g id="Group_260" data-name="Group 260" transform="translate(-409.393 -1030.66)">
    <path id="Path_505" data-name="Path 505" d="M409.393,1042.68c.2-.574.383-1.131.572-1.687.157-.463.316-.926.469-1.391a.186.186,0,0,0-.019-.134,5.519,5.519,0,0,1-.675-1.748,5.718,5.718,0,0,1,1.7-5.442,5.531,5.531,0,0,1,3.49-1.593,5.784,5.784,0,0,1,5.4,2.439,5.331,5.331,0,0,1,1.071,2.951,5.892,5.892,0,0,1-6.519,6.262,5.832,5.832,0,0,1-2.135-.649.209.209,0,0,0-.176-.014q-1.534.489-3.069.975C409.472,1042.659,409.441,1042.667,409.393,1042.68Zm1.486-1.453c.051-.013.079-.019.107-.028.569-.181,1.139-.361,1.707-.545a.183.183,0,0,1,.174.02,4.778,4.778,0,0,0,1.916.711,4.9,4.9,0,0,0,3.7-.925,4.837,4.837,0,0,0,1.441-1.673,4.758,4.758,0,0,0,.521-2.9,4.965,4.965,0,0,0-4.464-4.278,4.991,4.991,0,0,0-4.574,2.151,4.807,4.807,0,0,0-.786,1.949,4.867,4.867,0,0,0,0,1.62,4.757,4.757,0,0,0,.814,1.978.2.2,0,0,1,.027.208c-.118.334-.23.67-.344,1.006C411.04,1040.749,410.963,1040.979,410.879,1041.227Z" fill="#978f72"/>
    <path id="Path_506" data-name="Path 506" d="M413.683,1033.847a.444.444,0,0,0,.074,0c.2-.033.31.077.38.25q.225.546.455,1.09a.359.359,0,0,1-.083.366c-.09.129-.2.246-.3.366a.209.209,0,0,0-.03.294,3.907,3.907,0,0,0,2.011,1.707.208.208,0,0,0,.277-.08c.142-.168.28-.339.417-.511.117-.146.187-.172.357-.093.388.178.771.364,1.157.547a.21.21,0,0,1,.12.216,1.129,1.129,0,0,1-.719,1.109,1.428,1.428,0,0,1-1.09.1c-.446-.153-.9-.3-1.327-.491a4.2,4.2,0,0,1-1.283-.953,6.568,6.568,0,0,1-1.266-1.735,1.768,1.768,0,0,1-.094-1.407,1.606,1.606,0,0,1,.481-.674A.569.569,0,0,1,413.683,1033.847Z" fill="#978f72"/>
  </g>
</svg>
