<svg xmlns="http://www.w3.org/2000/svg" width="29.561" height="30.728" viewBox="0 0 29.561 30.728">
  <g id="Group_74" data-name="Group 74" transform="translate(-5247.553 -712.132)">
    <g id="Group_71" data-name="Group 71">
      <g id="Group_70" data-name="Group 70">
        <g id="Group_69" data-name="Group 69">
          <path id="Path_105" data-name="Path 105" d="M5272.73,716.515l-10.4-4.307-10.4,4.307-4.307,10.4,4.307,10.4,10.4,5.471,10.4-5.471,4.307-10.4Z" fill="none" stroke="#978f72" stroke-miterlimit="10" stroke-width="0.14"/>
        </g>
      </g>
    </g>
    <g id="Group_73" data-name="Group 73">
      <g id="Group_72" data-name="Group 72">
        <path id="Path_106" data-name="Path 106" d="M5260.053,736.407l2.28,1.307,2.28-1.307-2.28-1.3Z" fill="none" stroke="#978f72" stroke-miterlimit="10" stroke-width="0.14"/>
        <path id="Path_107" data-name="Path 107" d="M5271.9,726.948l-2.781-6.713-2.8-1.948-3.984,2.084-3.794-2.084-2.992,1.948-2.781,6.713h0l3.982,4.223v2.942l2.624,1.5,2.623-1.5v-.561l-3.579-1.931.752-2.316h0l.751-2.311-1.253-1.312.185.924-3.116-1.13-.284-1.243-.957-.691h3.543l2.9,2.164-1.5,4.964,2.9.989,2.961-1.027-1.588-4.926,2.9-2.164h3.543l-.957.691-.284,1.243-3.116,1.13.185-.924-1.2,1.254.791,2.412.332.973.443,1.3-3.675,1.932v.559l2.623,1.5,2.624-1.5v-1.218l0,0v-1.7l3.756-3.984-.042.015Z" fill="none" stroke="#978f72" stroke-miterlimit="10" stroke-width="0.14"/>
      </g>
    </g>
  </g>
</svg>
